<svg width="62" height="62" viewBox="0 0 62 62" fill="none" xmlns="http://www.w3.org/2000/svg">
<path d="M4.24316 0.484375L9.11355 55.1621L30.9676 61.2555L52.8826 55.1398L57.7569 0.484375H4.24316ZM47.6388 13.0113L46.0176 31.2262L46.0224 31.3245L46.0157 31.5507V31.5488L44.8638 44.285L44.7369 45.4165L31 49.2159V49.2164L30.9894 49.2256L17.2762 45.4048L16.3477 34.875H23.0723L23.5494 40.2293L31.002 42.2491L31 42.253V42.252L38.4802 40.2036L39.2707 31.4844H23.6337L23.4995 30.0104L23.1939 26.5573L23.0335 24.7031H39.8651L40.4773 17.9219H14.8413L14.7071 16.4489L14.402 12.9948L14.2411 11.1406H47.7991L47.6388 13.0113Z" fill="#1572B6"/>
</svg>
