<svg width="62" height="62" viewBox="0 0 62 62" fill="none" xmlns="http://www.w3.org/2000/svg">
<path d="M60.4218 28.2769L33.7246 1.58103C32.1881 0.043627 29.6946 0.043627 28.1557 1.58103L22.613 7.12519L29.6451 14.1573C31.2799 13.6056 33.1535 13.9757 34.456 15.2782C35.0767 15.8995 35.51 16.6829 35.7064 17.5389C35.9029 18.3948 35.8544 19.2888 35.5666 20.1185L42.344 26.8969C43.9836 26.3316 45.8761 26.6968 47.1849 28.0085C49.0158 29.838 49.0158 32.8038 47.1849 34.6343C46.7497 35.0696 46.2331 35.4149 45.6645 35.6505C45.0959 35.8861 44.4865 36.0074 43.871 36.0074C43.2555 36.0074 42.6461 35.8861 42.0775 35.6505C41.5089 35.4149 40.9923 35.0696 40.5571 34.6343C39.9034 33.9802 39.4578 33.1473 39.2764 32.2405C39.095 31.3337 39.1858 30.3935 39.5375 29.5382L33.2174 23.2176L33.2164 39.8515C33.675 40.0773 34.0937 40.3764 34.456 40.7369C36.2864 42.5664 36.2864 45.5313 34.456 47.3646C32.6255 49.1941 29.6587 49.1941 27.8302 47.3646C26.0002 45.5318 25.8501 42.5669 27.6796 40.7369C28.132 40.285 28.5781 39.9435 29.0624 39.7149V22.927C28.5781 22.6983 28.1324 22.3593 27.6791 21.9044C26.2933 20.5191 26.0341 18.4848 26.7452 16.7817L19.8511 9.84883L1.56399 28.1534C0.0261003 29.6922 0.0357878 32.1858 1.57368 33.7237L28.2753 60.4195C29.8123 61.9569 32.3078 61.9569 33.8471 60.4195L60.4199 33.8477C61.9578 32.3093 61.9593 29.8143 60.4218 28.2769Z" fill="#F34F29"/>
</svg>
