<svg width="62" height="62" viewBox="0 0 62 62" fill="none" xmlns="http://www.w3.org/2000/svg">
<path fill-rule="evenodd" clip-rule="evenodd" d="M31 2.4718C14.8475 2.4718 1.74951 15.5669 1.74951 31.7222C1.74951 44.6463 10.1307 55.6102 21.7527 59.4784C23.2141 59.7496 23.7508 58.8438 23.7508 58.0713C23.7508 57.3738 23.7237 55.0696 23.7111 52.6254C15.5736 54.3949 13.8565 49.1743 13.8565 49.1743C12.5259 45.7933 10.6087 44.8943 10.6087 44.8943C7.95436 43.0789 10.8088 43.1167 10.8088 43.1167C13.7455 43.3225 15.2926 46.1309 15.2926 46.1309C17.9015 50.6017 22.1354 49.3094 23.8046 48.5625C24.0671 46.672 24.8251 45.3811 25.6617 44.6507C19.1647 43.912 12.3346 41.4034 12.3346 30.1955C12.3346 27.002 13.4777 24.3927 15.3488 22.3438C15.0446 21.6075 14.0434 18.6325 15.6317 14.6035C15.6317 14.6035 18.0875 13.8173 23.6772 17.6017C26.0109 16.9532 28.5137 16.6272 31 16.616C33.4848 16.6272 35.989 16.9522 38.3271 17.6008C43.91 13.8163 46.3629 14.6025 46.3629 14.6025C47.955 18.631 46.9538 21.6066 46.6501 22.3428C48.5256 24.3917 49.6605 27.001 49.6605 30.1945C49.6605 41.4291 42.8177 43.9023 36.3043 44.627C37.354 45.5347 38.2888 47.3152 38.2888 50.0437C38.2888 53.9575 38.2549 57.1074 38.2549 58.0708C38.2549 58.8492 38.7819 59.7613 40.2641 59.474C51.8794 55.6019 60.2509 44.6415 60.2509 31.7222C60.2504 15.5678 47.1539 2.47229 31 2.47229V2.4718Z" fill="#181616"/>
<path d="M12.8281 44.4685C12.7637 44.6138 12.535 44.6574 12.3268 44.5581C12.1136 44.4632 11.995 44.2651 12.0637 44.1193C12.1267 43.9691 12.3558 43.928 12.5675 44.0282C12.7806 44.1237 12.9017 44.3237 12.8276 44.469L12.8281 44.4685ZM14.0129 45.7904C13.8738 45.9197 13.6011 45.8597 13.4161 45.6548C13.2243 45.4513 13.1885 45.1786 13.3304 45.0474C13.4747 44.9185 13.7392 44.9795 13.931 45.183C14.1218 45.3893 14.1596 45.6596 14.0133 45.7909L14.0129 45.7904ZM15.1666 47.4746C14.9874 47.5995 14.6939 47.4828 14.5127 47.2227C14.3335 46.9621 14.3335 46.6497 14.5176 46.5252C14.6983 46.4002 14.9874 46.5131 15.1715 46.7708C15.3497 47.0348 15.3497 47.3472 15.1666 47.4741V47.4746ZM16.7462 49.1026C16.5863 49.2793 16.2444 49.2319 15.9944 48.9911C15.7392 48.7553 15.668 48.4196 15.8283 48.2433C15.991 48.066 16.3345 48.1154 16.5859 48.3547C16.8411 48.5901 16.9181 48.9262 16.7472 49.1021L16.7462 49.1026ZM18.9259 50.0476C18.8547 50.2767 18.5263 50.3808 18.1945 50.283C17.8636 50.1827 17.6471 49.9148 17.7149 49.6833C17.7828 49.4523 18.1136 49.3443 18.4473 49.4484C18.7781 49.5482 18.9947 49.8146 18.9259 50.0476ZM21.3201 50.2224C21.3284 50.4636 21.0474 50.6632 20.7001 50.6681C20.3499 50.6763 20.0666 50.4806 20.0632 50.2433C20.0632 49.9996 20.3383 49.8025 20.688 49.7957C21.0353 49.7894 21.3206 49.9831 21.3206 50.2219L21.3201 50.2224ZM23.5473 49.8436C23.589 50.0786 23.3472 50.3203 23.0019 50.3847C22.6628 50.4477 22.348 50.3014 22.3044 50.0684C22.2627 49.8272 22.5088 49.5855 22.8479 49.523C23.1937 49.4634 23.5037 49.6053 23.5473 49.8441V49.8436Z" fill="#181616"/>
</svg>
