<svg width="62" height="62" viewBox="0 0 62 62" fill="none" xmlns="http://www.w3.org/2000/svg">
<g clip-path="url(#clip0_109_1824)">
<path d="M10.9792 4.99729e-06H51.0208C52.463 -0.00138913 53.8913 0.288926 55.224 0.854334C56.5566 1.41974 57.7675 2.24914 58.7873 3.29507C59.8071 4.341 60.6158 5.58292 61.167 6.94976C61.7183 8.3166 62.0014 9.78152 62 11.2607V50.7393C62.0014 52.2185 61.7183 53.6834 61.167 55.0502C60.6158 56.4171 59.8071 57.659 58.7873 58.7049C57.7675 59.7509 56.5566 60.5803 55.224 61.1457C53.8913 61.7111 52.463 62.0014 51.0208 62H10.9792C9.53698 62.0014 8.10868 61.7111 6.77602 61.1457C5.44335 60.5803 4.23248 59.7509 3.2127 58.7049C2.19292 57.659 1.38425 56.4171 0.832976 55.0502C0.281702 53.6834 -0.0013544 52.2185 4.87236e-06 50.7393V11.2607C-0.0013544 9.78152 0.281702 8.3166 0.832976 6.94976C1.38425 5.58292 2.19292 4.341 3.2127 3.29507C4.23248 2.24914 5.44335 1.41974 6.77602 0.854334C8.10868 0.288926 9.53698 -0.00138913 10.9792 4.99729e-06Z" fill="#F7DF1E"/>
<path d="M41.7536 48.5125C43.0025 50.5516 44.6273 52.0504 47.5009 52.0504C49.915 52.0504 51.4571 50.8439 51.4571 49.1768C51.4571 47.179 49.8727 46.4714 47.2155 45.3092L45.759 44.6842C41.5548 42.8931 38.7619 40.6493 38.7619 35.9058C38.7619 31.5363 42.0912 28.21 47.2942 28.21C50.9985 28.21 53.6615 29.4992 55.5806 32.8747L51.0438 35.7877C50.0449 33.9966 48.9673 33.291 47.2942 33.291C45.5878 33.291 44.5062 34.3735 44.5062 35.7877C44.5062 37.5355 45.5888 38.2431 48.0884 39.3257L49.5449 39.9496C54.4951 42.0724 57.29 44.2365 57.29 49.102C57.29 54.3474 53.1695 57.221 47.6357 57.221C42.225 57.221 38.7294 54.6426 37.019 51.2631L41.7536 48.5125ZM21.1726 49.0174C22.0878 50.6412 22.9204 52.014 24.9221 52.014C26.8362 52.014 28.0437 51.2651 28.0437 48.3531V28.5426H33.8698V48.4318C33.8698 54.4645 30.3328 57.2102 25.1701 57.2102C20.5053 57.2102 17.8039 54.7962 16.4301 51.8885L21.1726 49.0174Z" fill="black"/>
</g>
<defs>
<clipPath id="clip0_109_1824">
<rect width="62" height="62" fill="white"/>
</clipPath>
</defs>
</svg>
