<svg width="68" height="68" viewBox="0 0 68 68" fill="none" xmlns="http://www.w3.org/2000/svg">
<g clip-path="url(#clip0_109_1905)">
<path d="M12.0417 5.4809e-06H55.9583C57.5401 -0.00152356 59.1066 0.316886 60.5682 0.937011C62.0299 1.55714 63.3579 2.4668 64.4764 3.61395C65.5949 4.7611 66.4818 6.12321 67.0864 7.62232C67.691 9.12143 68.0015 10.7281 68 12.3504V55.6496C68.0015 57.2719 67.691 58.8786 67.0864 60.3777C66.4818 61.8768 65.5949 63.2389 64.4764 64.386C63.3579 65.5332 62.0299 66.4429 60.5682 67.063C59.1066 67.6831 57.5401 68.0015 55.9583 68H12.0417C10.4599 68.0015 8.8934 67.6831 7.43176 67.063C5.97013 66.4429 4.64207 65.5332 3.5236 64.386C2.40513 63.2389 1.51821 61.8768 0.913586 60.3777C0.308964 58.8786 -0.00148547 57.2719 5.34388e-06 55.6496V12.3504C-0.00148547 10.7281 0.308964 9.12143 0.913586 7.62232C1.51821 6.12321 2.40513 4.7611 3.5236 3.61395C4.64207 2.4668 5.97013 1.55714 7.43176 0.937011C8.8934 0.316886 10.4599 -0.00152356 12.0417 5.4809e-06Z" fill="#000B1D"/>
<g clip-path="url(#clip1_109_1905)">
<path d="M33.9999 38.4963C36.6109 38.4963 38.7274 36.4071 38.7274 33.83C38.7274 31.2529 36.6109 29.1637 33.9999 29.1637C31.389 29.1637 29.2725 31.2529 29.2725 33.83C29.2725 36.4071 31.389 38.4963 33.9999 38.4963Z" fill="#61DAFB"/>
<path fill-rule="evenodd" clip-rule="evenodd" d="M11.367 30.9184C10.2199 31.9404 9.73808 32.9262 9.73808 33.83C9.73808 34.7339 10.2199 35.7196 11.367 36.7417C12.5139 37.7636 14.2355 38.734 16.457 39.5712C20.8924 41.2428 27.0945 42.2996 34 42.2996C40.9056 42.2996 47.1076 41.2428 51.543 39.5712C53.7645 38.734 55.4862 37.7636 56.6331 36.7417C57.7801 35.7196 58.262 34.7339 58.262 33.83C58.262 32.9262 57.7801 31.9404 56.6331 30.9184C55.4862 29.8964 53.7645 28.9261 51.543 28.0889C47.1076 26.4173 40.9056 25.3605 34 25.3605C27.0945 25.3605 20.8924 26.4173 16.457 28.0889C14.2355 28.9261 12.5139 29.8964 11.367 30.9184ZM15.6687 26.051C20.4144 24.2624 26.8958 23.1791 34 23.1791C41.1043 23.1791 47.5857 24.2624 52.3313 26.051C54.7004 26.9438 56.6936 28.0335 58.114 29.2991C59.5342 30.5646 60.472 32.0939 60.472 33.83C60.472 35.5662 59.5342 37.0954 58.114 38.3609C56.6936 39.6265 54.7004 40.7163 52.3313 41.6091C47.5857 43.3976 41.1043 44.481 34 44.481C26.8958 44.481 20.4144 43.3976 15.6687 41.6091C13.2997 40.7163 11.3065 39.6265 9.8861 38.3609C8.46586 37.0954 7.52808 35.5662 7.52808 33.83C7.52808 32.0939 8.46586 30.5646 9.8861 29.2991C11.3065 28.0335 13.2997 26.9438 15.6687 26.051Z" fill="#61DAFB"/>
<path fill-rule="evenodd" clip-rule="evenodd" d="M25.2382 13.0269C23.7679 12.5575 22.6621 12.6384 21.8691 13.0904C21.0761 13.5423 20.4521 14.4471 20.1289 15.9386C19.8058 17.43 19.8152 19.3869 20.1914 21.7045C20.9425 26.3317 23.1163 32.1618 26.5691 38.0648C30.0219 43.9677 34.0501 48.741 37.7344 51.6967C39.5797 53.177 41.2919 54.1636 42.762 54.633C44.2322 55.1025 45.338 55.0215 46.1311 54.5696C46.9241 54.1177 47.548 53.2129 47.8712 51.7213C48.1944 50.23 48.1849 48.2731 47.8087 45.9555C47.0577 41.3282 44.8838 35.4982 41.4311 29.5952C37.9783 23.6922 33.9501 18.919 30.2658 15.9633C28.4204 14.4829 26.7083 13.4964 25.2382 13.0269ZM31.6596 14.2705C35.6016 17.4329 39.7929 22.4316 43.345 28.5045C46.8971 34.5774 49.1873 40.6595 49.9909 45.6104C50.3921 48.0819 50.4326 50.3307 50.0324 52.1776C49.6322 54.0244 48.7593 55.5907 47.2361 56.4587C45.7128 57.3268 43.9022 57.2898 42.0817 56.7085C40.2611 56.1272 38.3084 54.9682 36.3405 53.3895C32.3985 50.2271 28.2073 45.2283 24.6552 39.1555C21.103 33.0826 18.8129 27.0005 18.0092 22.0495C17.6081 19.578 17.5676 17.3293 17.9678 15.4823C18.368 13.6355 19.2409 12.0693 20.7641 11.2012C22.2874 10.3331 24.098 10.3701 25.9184 10.9514C27.739 11.5328 29.6918 12.6918 31.6596 14.2705Z" fill="#61DAFB"/>
<path fill-rule="evenodd" clip-rule="evenodd" d="M47.8712 15.9387C47.548 14.4471 46.924 13.5423 46.131 13.0904C45.338 12.6385 44.2322 12.5575 42.762 13.027C41.2919 13.4964 39.5797 14.483 37.7344 15.9633C34.0501 18.919 30.0218 23.6923 26.5691 29.5953C23.1163 35.4982 20.9425 41.3283 20.1914 45.9556C19.8152 48.2732 19.8057 50.23 20.1289 51.7214C20.4521 53.2129 21.0761 54.1177 21.8691 54.5696C22.6621 55.0216 23.7679 55.1025 25.2382 54.6331C26.7082 54.1636 28.4204 53.1771 30.2657 51.6967C33.95 48.741 37.9783 43.9678 41.431 38.0648C44.8838 32.1618 47.0576 26.3318 47.8087 21.7045C48.1849 19.3869 48.1944 17.43 47.8712 15.9387ZM49.9909 22.0496C49.1873 27.0005 46.8971 33.0826 43.345 39.1555C39.7928 45.2284 35.6016 50.2271 31.6596 53.3895C29.6917 54.9682 27.739 56.1272 25.9184 56.7086C24.098 57.2899 22.2873 57.3269 20.7641 56.4588C19.2408 55.5907 18.368 54.0245 17.9678 52.1777C17.5676 50.3307 17.6081 48.082 18.0092 45.6105C18.8128 40.6595 21.103 34.5774 24.6552 28.5045C28.2073 22.4317 32.3985 17.4329 36.3405 14.2705C38.3084 12.6918 40.2611 11.5328 42.0817 10.9515C43.9021 10.3702 45.7128 10.3332 47.236 11.2013C48.7593 12.0693 49.6321 13.6356 50.0323 15.4824C50.4326 17.3293 50.392 19.5781 49.9909 22.0496Z" fill="#61DAFB"/>
</g>
</g>
<defs>
<clipPath id="clip0_109_1905">
<rect width="68" height="68" fill="white"/>
</clipPath>
<clipPath id="clip1_109_1905">
<rect width="53.04" height="46.58" fill="white" transform="translate(7.47998 10.54)"/>
</clipPath>
</defs>
</svg>
